<svg width="16" height="18" fill="2D2D2D80" xmlns="http://www.w3.org/2000/svg"><path d="M8.064 0C3.7 0 0 2.465 0 7.643v2.888C0 15.685 3.7 18 8.064 18c1.607 0 3.139-.373 4.491-1.02l-.791-2.241c-.919.423-2.297.796-3.598.796-3.496 0-5.333-1.842-5.333-4.63V7.22c0-2.764 1.71-4.78 5.23-4.78 3.522 0 5.104 2.016 5.104 4.78v2.564c0 1.444-.153 1.867-.867 1.942-.383.05-.46-.249-.46-1.07V7.892c0-2.465-1.199-3.784-3.47-3.784h-.561c-1.99 0-3.598.996-3.598 3.784v2.365c0 2.44 1.122 3.685 3.393 3.685.945 0 1.838-.324 2.578-.971.434.573 1.046.921 1.965.871C14.494 13.718 16 12.473 16 9.91V7.643C16 2.465 12.427 0 8.064 0zm.153 6.598c.791 0 .97.547.97 1.419v2.066c0 .946-.383 1.469-1.327 1.469-.69 0-1.021-.324-1.021-1.245v-2.29c0-.872.23-1.42.995-1.42h.383z" /></svg>