<svg width="268" height="87" fill="none" xmlns="http://www.w3.org/2000/svg"><path d="M.746 26.611h5.626V52.22C6.372 64.15 11.416 69 23.153 69h3.201V58.524h-2.328c-4.074 0-6.305-1.552-6.305-7.178V26.611h6.79v-9.894h-6.79V.81H6.372v15.908H.746v9.894zm61.668 32.301H48.931c-3.395 0-5.528-.097-5.528-5.432v-1.455H49.9c8.633 0 14.842-1.552 14.842-13.968v-6.693c0-11.058-5.53-16.878-16.296-16.878-10.864 0-16.394 5.917-16.394 16.878v21.922C32.053 66.77 39.523 69 47.284 69h15.131V58.912zm-19.011-16.49V31.073c0-4.656 1.455-6.499 5.044-6.499 3.588 0 4.947 1.843 4.947 6.305v6.014c0 4.171-1.358 5.53-5.238 5.53h-4.753zm31.08-16.392h12.319c3.104 0 4.365 1.26 4.365 4.364v3.88h-6.693c-9.021 0-14.26 3.492-14.26 13.677v8.245c0 9.894 5.82 14.26 15.909 14.26 10.088 0 16.102-4.366 16.102-14.26V30.588c0-9.7-4.171-14.647-14.065-14.647H74.483V26.03zm11.64 34.337c-2.91 0-4.947-1.26-4.947-4.947v-7.08c0-3.59 2.23-4.463 4.462-4.463h5.529v12.028c0 3.783-2.328 4.462-5.044 4.462zM142.515 69V30.685c0-10.96-6.305-16.199-16.878-16.199-10.476 0-16.296 5.238-16.296 16.2V69h11.349V31.461c0-4.753 2.037-6.693 5.238-6.693 3.298 0 5.335 1.94 5.335 6.693v37.54h11.252zm41.8-37.733c0-10.864-6.111-16.78-16.975-16.78s-16.975 5.916-16.975 16.78v55.29h11.155V67.254c1.843 1.746 4.074 2.522 7.663 2.522 8.536 0 15.132-5.917 15.132-16.78v-21.73zm-22.795-.097c0-4.656 2.328-6.596 5.82-6.596 3.589 0 5.626 1.94 5.626 6.596v21.825c0 4.656-2.037 6.79-5.626 6.79-3.492 0-5.82-2.328-5.82-6.305V31.17zM203.109.615H191.76V69h11.349V29.133c.873-2.23 3.007-3.589 5.529-3.589 4.171 0 6.014 2.91 6.014 7.47V69h11.349V29.812c0-9.99-5.723-15.326-14.55-15.326-3.492 0-6.208 1.067-8.342 2.62V.615zm41.281 30.846c0-4.753 2.91-6.984 6.208-6.984s6.111 2.231 6.111 6.984v22.31c0 4.656-2.813 6.887-6.111 6.887-3.298 0-6.208-2.23-6.208-6.887v-22.31zm-10.961 22.02c0 10.863 6.596 17.168 17.169 17.168s17.169-6.305 17.169-17.169V31.752c0-10.864-6.596-17.266-17.169-17.266s-17.169 6.402-17.169 17.266V53.48z" fill="#2D2D2D"/></svg>