<svg width="40" height="40" fill="none" xmlns="http://www.w3.org/2000/svg"><path d="M0 9.065A9.065 9.065 0 0 1 9.065 0h21.87A9.065 9.065 0 0 1 40 9.065v21.87A9.065 9.065 0 0 1 30.935 40H9.065A9.065 9.065 0 0 1 0 30.935V9.065z" fill="#2D2D2D"/><path fill-rule="evenodd" clip-rule="evenodd" d="M20.17 40h5.202v-9.004c.859.814 1.9 1.176 3.573 1.176 3.98 0 7.055-2.76 7.055-7.828V14.208c0-5.068-2.85-7.828-7.915-7.828-5.065 0-7.915 2.76-7.915 7.828V40zM12.916 0h-3.85c-.49 0-.972.039-1.442.114V7.42H5v4.615h2.623v11.946c0 5.565 2.352 7.828 7.824 7.828h1.493v-4.887h-1.086c-1.899 0-2.94-.724-2.94-3.348V12.036h3.167V7.421h-3.166V0zm15.17 11.086c-1.628 0-2.713.905-2.713 3.077V24.57c0 1.855 1.085 2.941 2.713 2.941 1.674 0 2.623-.995 2.623-3.167v-10.18c0-2.173-.95-3.078-2.623-3.078z" fill="#fff"/></svg>